# xmcd
#
# Track frame offsets:
#	150
#	10515
#	20789
#	30075
#	42173
#	51435
#	61891
#	74112
#	84983
#	94610
#	108948
#	137735
#	156046
#	173300
#
# Disc length: 2514 seconds
# Revision: 0
# Processed by: cddbd v1.5.2PL0 Copyright (c) Steve Scherf et al.
# Submitted via: dBpowerAMP V12.0
#
DISCID=a409d00e
DTITLE=Chet Atkins - Playlist: The Very Best of Chet Atkins
DYEAR=1976
DGENRE=Instrumental
TTITLE0=The World Is Waiting for the Sunrise (with Les Paul) [Playlist]
TTITLE1=Mister Sandman
TTITLE2=Freight Train
TTITLE3=Rocky Top
TTITLE4=Yakety Axe
TTITLE5=The Entertainer
TTITLE6=Take Five
TTITLE7=Walk, Don't Run
TTITLE8=One Mint Julep
TTITLE9=Yesterday
TTITLE10=Why Worry (with Mark Knopfler)
TTITLE11=Poor Boy Blues (with Mark Knopfler)
TTITLE12=Vincent
TTITLE13=Ave Maria
EXTD=
EXTT0=
EXTT1=
EXTT2=
EXTT3=
EXTT4=
EXTT5=
EXTT6=
EXTT7=
EXTT8=
EXTT9=
EXTT10=
EXTT11=
EXTT12=
EXTT13=
PLAYORDER=
